<?xml version="1.0" standalone="no"?>
<!DOCTYPE svg PUBLIC "-//W3C//DTD SVG 20010904//EN"
 "http://www.w3.org/TR/2001/REC-SVG-20010904/DTD/svg10.dtd">
<svg version="1.0" xmlns="http://www.w3.org/2000/svg"
 width="400.000000pt" height="400.000000pt" viewBox="0 0 400.000000 400.000000"
 preserveAspectRatio="xMidYMid meet">

<g transform="translate(0.000000,400.000000) scale(0.100000,-0.100000)"
fill="#000000" stroke="none">
<path d="M1655 3414 c-222 -24 -432 -103 -596 -225 -87 -64 -223 -207 -281
-294 -201 -306 -248 -689 -126 -1033 59 -168 130 -283 257 -415 231 -240 512
-360 841 -360 256 0 491 76 691 224 l76 57 388 -388 c214 -214 399 -391 411
-394 56 -15 116 52 95 106 -5 13 -183 196 -394 407 l-385 384 57 76 c227 307
287 716 159 1079 -59 168 -130 283 -257 415 -220 228 -479 346 -796 360 -55 3
-118 3 -140 1z m330 -193 c375 -94 653 -377 741 -756 14 -57 19 -118 19 -215
0 -97 -5 -158 -19 -215 -90 -385 -376 -671 -761 -761 -110 -26 -320 -26 -430
0 -449 104 -758 472 -782 931 -14 282 89 547 292 750 149 149 321 240 532 280
105 20 301 13 408 -14z"/>
</g>
</svg>
