<?xml version="1.0" standalone="no"?>
<!DOCTYPE svg PUBLIC "-//W3C//DTD SVG 20010904//EN"
 "http://www.w3.org/TR/2001/REC-SVG-20010904/DTD/svg10.dtd">
<svg version="1.0" xmlns="http://www.w3.org/2000/svg"
 width="200.000000pt" height="200.000000pt" viewBox="0 0 200.000000 200.000000"
 preserveAspectRatio="xMidYMid meet">

<g transform="translate(0.000000,200.000000) scale(0.100000,-0.100000)"
fill="#000000" stroke="none">
<path d="M612 1748 c-7 -7 -12 -24 -12 -39 0 -24 -5 -28 -31 -31 -64 -6 -64
-70 -1 -76 26 -3 31 -8 34 -34 6 -63 70 -63 76 0 3 26 8 31 34 34 63 6 63 70
-1 76 -26 3 -31 7 -31 31 0 30 -16 51 -40 51 -9 0 -21 -5 -28 -12z"/>
<path d="M1055 1470 c-54 -11 -136 -43 -188 -73 -58 -35 -149 -125 -183 -183
-188 -321 -40 -710 316 -830 76 -26 244 -26 320 0 215 73 361 244 395 463 l7
42 -84 -6 c-296 -20 -535 219 -515 515 7 91 10 87 -68 72z m-4 -210 c16 -100
75 -214 153 -292 97 -96 209 -150 348 -165 l67 -8 -24 -59 c-127 -312 -521
-393 -767 -158 -169 161 -195 420 -60 612 46 67 131 134 208 165 l59 24 3 -27
c1 -15 7 -56 13 -92z"/>
<path d="M273 1246 c-18 -18 -33 -39 -33 -46 0 -18 62 -80 80 -80 18 0 80 62
80 80 0 18 -62 80 -80 80 -8 0 -30 -15 -47 -34z"/>
</g>
</svg>
